HIERARCHY
ROOT Hips
{
	OFFSET 0.000000 0.000000 0.000000
	CHANNELS 6 Xposition Yposition Zposition Zrotation Yrotation Xrotation 
	JOINT LowerBack
	{
		OFFSET 0.000000 0.000000 0.000000
		CHANNELS 3 Zrotation Yrotation Xrotation
		JOINT Spine
		{
			OFFSET 0.028270 2.035590 -0.193380
			CHANNELS 3 Zrotation Yrotation Xrotation
			JOINT Spine1
			{
				OFFSET 0.056720 2.048850 -0.042750
				CHANNELS 3 Zrotation Yrotation Xrotation
				JOINT Neck
				{
					OFFSET 0.000000 0.000000 0.000000
					CHANNELS 3 Zrotation Yrotation Xrotation
					JOINT Neck1
					{
						OFFSET -0.054170 1.746240 0.172020
						CHANNELS 3 Zrotation Yrotation Xrotation
						JOINT Head
						{
							OFFSET 0.104070 1.761360 -0.123970
							CHANNELS 3 Zrotation Yrotation Xrotation
							End Site
							{
								OFFSET 0.000000 0.000000 0.000000
							}
						}
					}
				}
				JOINT LeftShoulder
				{
					OFFSET 0.000000 0.000000 0.000000
					CHANNELS 3 Zrotation Yrotation Xrotation
					JOINT LeftArm
					{
						OFFSET 3.362410 1.200890 -0.311210
						CHANNELS 3 Zrotation Yrotation Xrotation
						JOINT LeftForeArm
						{
							OFFSET 4.983000 -0.000000 -0.000000
							CHANNELS 3 Zrotation Yrotation Xrotation
							JOINT LeftHand
							{
								OFFSET 3.483560 -0.000000 -0.000000
								CHANNELS 3 Zrotation Yrotation Xrotation
								JOINT LeftFingerBase
								{
									OFFSET 0.000000 0.000000 0.000000
									CHANNELS 3 Zrotation Yrotation Xrotation
									JOINT LeftHandIndex1
									{
										OFFSET 0.715260 -0.000000 -0.000000
										CHANNELS 3 Zrotation Yrotation Xrotation
										End Site
										{
											OFFSET 0.000000 0.000000 0.000000
										}
									}
								}
								JOINT LThumb
								{
									OFFSET 0.000000 0.000000 0.000000
									CHANNELS 3 Zrotation Yrotation Xrotation
									End Site
									{
										OFFSET 0.000000 0.000000 0.000000
									}
								}
							}
						}
					}
				}
				JOINT RightShoulder
				{
					OFFSET 0.000000 0.000000 0.000000
					CHANNELS 3 Zrotation Yrotation Xrotation
					JOINT RightArm
					{
						OFFSET -3.136600 1.374050 -0.404650
						CHANNELS 3 Zrotation Yrotation Xrotation
						JOINT RightForeArm
						{
							OFFSET -5.241900 -0.000000 -0.000000
							CHANNELS 3 Zrotation Yrotation Xrotation
							JOINT RightHand
							{
								OFFSET -3.444170 -0.000000 -0.000000
								CHANNELS 3 Zrotation Yrotation Xrotation
								JOINT RightFingerBase
								{
									OFFSET 0.000000 0.000000 0.000000
									CHANNELS 3 Zrotation Yrotation Xrotation
									JOINT RightHandIndex1
									{
										OFFSET -0.622530 -0.000000 -0.000000
										CHANNELS 3 Zrotation Yrotation Xrotation
										End Site
										{
											OFFSET 0.000000 0.000000 0.000000
										}
									}
								}
								JOINT RThumb
								{
									OFFSET 0.000000 0.000000 0.000000
									CHANNELS 3 Zrotation Yrotation Xrotation
									End Site
									{
										OFFSET 0.000000 0.000000 0.000000
									}
								}
							}
						}
					}
				}
			}
		}
	}
}
}
MOTION
Frames: 6
Frame Time: 0.008333
-5.469748 14.450488 -0.482461 176.368970 -85.711079 -106.449682 1.586025 -1.230611 -0.840918 -0.472341 -1.373777 -3.767123 -5.297336 -1.368669 -2.749618 8.907509 -7.411751 -8.023568 -2.901139 -0.159568 -1.113078 0.000000 0.000000 0.000000 6.439697 6.335933 1.976117 -70.827005 -11.188338 2.445682 -178.466419 -65.336846 179.903097 9.426037 -2.146327 -0.240000 -0.323515 0.700353 0.000000 0.000000 0.000000 0.000000 0.000000 0.000000 0.000000 6.400098 -2.154059 1.220750 71.415431 3.975975 7.565621 -179.978592 65.445321 179.852262 -15.323597 11.458749 -1.690257 0.305861 -0.819138 0.000000 0.000000 0.000000 0.000000 0.000000 0.000000 0.000000 
-5.464744 14.440021 -0.502730 176.122053 -85.648395 -106.101621 1.635062 -1.226256 -0.854184 -0.459671 -1.371389 -3.769042 -5.283341 -1.368896 -2.746905 8.946537 -7.405121 -8.049020 -2.908816 -0.159755 -1.122371 0.000000 0.000000 0.000000 6.321492 6.336538 1.999017 -70.660467 -11.046600 2.140023 -178.511642 -65.807586 179.903357 9.453512 -2.110404 -0.237052 -0.320284 0.694146 0.000000 0.000000 0.000000 0.000000 0.000000 0.000000 0.000000 6.630517 -2.157274 1.228539 71.300017 4.041361 7.654311 -179.990138 65.988789 179.852266 -15.464251 11.728664 -1.743760 0.307534 -0.819382 0.000000 0.000000 0.000000 0.000000 0.000000 0.000000 0.000000 
-5.460132 14.430898 -0.522875 176.071666 -85.586113 -105.957423 1.689112 -1.219433 -0.872417 -0.445782 -1.366888 -3.771758 -5.269619 -1.367177 -2.742118 8.993869 -7.395254 -8.080820 -2.917458 -0.159949 -1.133374 0.000000 0.000000 0.000000 6.203116 6.352594 2.022758 -70.502390 -10.918032 1.842934 -178.561841 -66.340530 179.903521 9.489394 -2.054424 -0.232509 -0.316859 0.687186 0.000000 0.000000 0.000000 0.000000 0.000000 0.000000 0.000000 6.885062 -2.155866 1.238495 71.165819 4.107907 7.737285 179.997755 66.589422 179.852430 -15.606770 11.990894 -1.796963 0.309071 -0.818709 0.000000 0.000000 0.000000 0.000000 0.000000 0.000000 0.000000 
-5.456003 14.423235 -0.543041 176.189612 -85.523624 -105.990359 1.745398 -1.211212 -0.895210 -0.431456 -1.361248 -3.775076 -5.256582 -1.364478 -2.735189 9.052849 -7.380454 -8.122411 -2.927261 -0.160117 -1.147255 0.000000 0.000000 0.000000 6.087313 6.391332 2.048632 -70.352293 -10.810017 1.558015 -178.616400 -66.943621 179.903668 9.525285 -1.970044 -0.225372 -0.313051 0.679310 0.000000 0.000000 0.000000 0.000000 0.000000 0.000000 0.000000 7.167862 -2.146788 1.251182 71.011655 4.172141 7.810705 179.985648 67.247414 179.852739 -15.752637 12.232213 -1.847968 0.310508 -0.816833 0.000000 0.000000 0.000000 0.000000 0.000000 0.000000 0.000000 
-5.452258 14.417032 -0.563048 176.508710 -85.462079 -106.234302 1.808875 -1.199953 -0.921741 -0.415424 -1.353007 -3.778463 -5.243934 -1.359287 -2.725179 9.121951 -7.368265 -8.179158 -2.937271 -0.160116 -1.165751 0.000000 0.000000 0.000000 5.972332 6.459052 2.077161 -70.210987 -10.728845 1.289550 -178.674436 -67.620054 179.903906 9.550327 -1.851148 -0.214943 -0.308624 0.670431 0.000000 0.000000 0.000000 0.000000 0.000000 0.000000 0.000000 7.472947 -2.135328 1.267382 70.839097 4.236329 7.875896 179.974057 67.961584 179.853147 -15.904968 12.439907 -1.895476 0.311943 -0.813564 0.000000 0.000000 0.000000 0.000000 0.000000 0.000000 0.000000 
-5.449386 14.412418 -0.582911 177.015731 -85.401422 -106.677629 1.880548 -1.184568 -0.956639 -0.397861 -1.341323 -3.784598 -5.233278 -1.350900 -2.716192 9.201250 -7.348586 -8.247524 -2.948842 -0.160116 -1.187580 0.000000 0.000000 0.000000 5.853129 6.539524 2.110845 -70.072141 -10.657592 1.028805 -178.735138 -68.371565 179.904393 9.550638 -1.692998 -0.200320 -0.303267 0.660383 0.000000 0.000000 0.000000 0.000000 0.000000 0.000000 0.000000 7.803189 -2.109017 1.288808 70.646957 4.280167 7.921236 179.963702 68.726093 179.853607 -16.066533 12.605368 -1.938186 0.313410 -0.808803 0.000000 0.000000 0.000000 0.000000 0.000000 0.000000 0.000000 
